::::::::::::::Enjoy:Another:Release:From:T0XiCiNK::::::::::::::

File:: TRON.Legacy.2010.PPV.XViD-T0XiCiNK
Video Source:: ....IFLIX (holla)
Audio Source:: ....IFLIX (holla)
Language::English
IMDB::http://www.imdb.com/title/tt1104001/

The son of a virtual world designer goes looking for his father and ends up inside 
the digital world that his father designed. He meets his father's creation turned bad 
and a unique ally who was born inside the digital domain of The Grid.

Specs::

General

Format                           : AVI
Format/Info                      : Audio Video Interleave
File size                        : 1.37 GiB
Duration                         : 2h 3mn
Overall bit rate                 : 1 586 Kbps
Writing application              : VirtualDubMod 1.5.10.2 (build 2540/release)
Writing library                  : VirtualDubMod build 2540/release

Video
ID                               : 0
Format                           : MPEG-4 Visual
Format profile                   : Advanced Simple@L5
Format settings, BVOP            : 2
Format settings, QPel            : No
Format settings, GMC             : No warppoints
Format settings, Matrix          : Default (MPEG)
Muxing mode                      : Packed bitstream
Codec ID                         : XVID
Codec ID/Hint                    : XviD
Duration                         : 2h 3mn
Bit rate                         : 1 447 Kbps
Width                            : 704 pixels
Height                           : 380 pixels
Display aspect ratio             : 1.853
Frame rate                       : 29.970 fps
Color space                      : YUV
Chroma subsampling               : 4:2:0
Bit depth                        : 8 bits
Scan type                        : Progressive
Compression mode                 : Lossy
Bits/(Pixel*Frame)               : 0.180
Stream size                      : 1.25 GiB (91%)
Writing library                  : XviD 58

Audio
ID                               : 1
Format                           : MPEG Audio
Format version                   : Version 1
Format profile                   : Layer 3
Mode                             : Joint stereo
Mode extension                   : MS Stereo
Codec ID                         : 55
Codec ID/Hint                    : MP3
Duration                         : 2h 3mn
Bit rate mode                    : Constant
Bit rate                         : 128 Kbps
Channel(s)                       : 2 channels
Sampling rate                    : 44.1 KHz
Compression mode                 : Lossy
Stream size                      : 113 MiB (8%)
Alignment                        : Split accross interleaves
Interleave, duration             : 33 ms (1.00 video frame)
Interleave, preload duration     : 500 ms
Writing library                  : LAME3.98.2


NOTES:: T0XiCiNK is proud to present Tron: Legacy PPVRip. Enjoy

Announcement: ~T0XiC-iNK Merge is complete, we are now T0XiCiNK~

Broadcast: IFLIX, get in touch.. There's a lot we can accomplish and much I can help
you with.

::Why Complain? Whats Free Is Free::

::We are always looking for friends with unreleased DVD's, Screeners, R5's, Audio, Cams, Silvers,
...and any other good sources you may have to offer - 
..contact us: t0xicreleases@hushmail.com or digital.ink@live.com

::::::::::::::::::::::::::::::::::::   Respect To   :::::::::::::::::::::::::::::::::::::
::IMAGiNE,FLAWL3SS,Hive-CM8,DiGiTALiNK,Tranz,Vik,OneTwo,Joey,bob,Unevano & our friends on utn and PA::
                      "and to all of you who support us, Thank-You